<svg xmlns="http://www.w3.org/2000/svg" width="117.12" height="19.592" viewBox="-2 0 95.643965 6.2693878"><path d="m93.21 2.543c-.043.069-.089.119-.136.15-.048.026-.108.039-.182.039-.078 0-.163-.022-.254-.065-.087-.043-.189-.091-.305-.143-.117-.056-.251-.106-.403-.15-.147-.043-.323-.065-.526-.065-.316 0-.566.067-.748.202-.182.134-.273.31-.273.527 0 .143.046.264.136.364.095.095.219.18.371.253.156.074.331.141.526.201.195.056.394.119.598.189.204.069.403.15.598.24.195.087.368.199.52.338.156.134.279.297.371.487.095.191.143.42.143.689 0 .321-.058.618-.175.891-.117.269-.288.503-.513.702-.225.195-.505.349-.838.462-.329.108-.709.163-1.138.163-.23 0-.455-.022-.676-.065-.217-.039-.427-.095-.63-.169-.199-.074-.386-.16-.559-.26-.169-.1-.319-.208-.448-.325l.371-.611c.048-.074.104-.13.169-.169.065-.039.147-.059.247-.059.1 0 .193.028.279.085.091.056.195.117.312.182.117.065.253.126.409.182.16.056.362.085.605.085.191 0 .353-.022.487-.065.139-.048.251-.108.338-.182.091-.074.156-.158.195-.253.043-.1.065-.201.065-.306 0-.156-.048-.284-.143-.383-.091-.1-.215-.186-.371-.26-.152-.074-.327-.139-.526-.195-.195-.061-.397-.126-.605-.195-.204-.069-.405-.149-.605-.24-.195-.095-.371-.214-.526-.357-.152-.143-.275-.318-.371-.527-.091-.208-.136-.459-.136-.754 0-.273.054-.533.162-.78.108-.247.266-.461.475-.644.212-.186.474-.334.787-.442.316-.113.68-.169 1.092-.169.459 0 .877.076 1.254.228.377.152.691.351.942.598l-.364.579m-11.353 5.369v-9.659h1.606v3.809c.264-.282.563-.505.897-.67.334-.169.724-.253 1.17-.254.364 0 .695.076.995.228.303.147.563.364.78.65.221.286.39.639.507 1.06.121.42.182.904.182 1.45 0 .498-.067.96-.201 1.384-.134.425-.327.793-.579 1.105-.247.312-.548.557-.903.734-.351.173-.745.26-1.183.26-.204 0-.39-.022-.559-.065-.169-.039-.323-.095-.462-.169-.139-.074-.269-.162-.39-.266-.117-.108-.23-.227-.338-.357l-.072.449c-.026.113-.072.193-.136.24-.061.048-.145.072-.254.072h-1.06m3.12-5.525c-.334 0-.62.072-.858.215-.234.139-.453.336-.656.591v2.99c.182.225.379.384.591.474.217.087.451.13.702.13.243 0 .461-.045.656-.136.195-.091.36-.23.494-.416.139-.186.245-.42.319-.702.074-.286.11-.622.111-1.01 0-.39-.033-.719-.097-.988-.061-.273-.15-.494-.266-.663-.117-.169-.26-.292-.429-.37-.165-.078-.353-.117-.566-.117m-4.718 5.525h-.722c-.152 0-.271-.022-.358-.065-.087-.048-.152-.141-.195-.279l-.143-.474c-.169.152-.336.286-.501.403-.16.113-.327.208-.501.286-.173.078-.358.136-.552.175-.195.039-.412.059-.65.059-.282 0-.542-.037-.78-.111-.238-.078-.444-.193-.618-.345-.169-.152-.301-.34-.397-.566-.095-.225-.143-.487-.143-.787 0-.251.065-.498.195-.741.134-.247.355-.468.663-.663.308-.199.717-.364 1.228-.494.511-.13 1.146-.204 1.904-.221v-.39c0-.446-.095-.776-.286-.988-.186-.217-.459-.325-.819-.325-.26 0-.477.03-.65.091-.173.061-.325.13-.455.208-.126.074-.243.141-.351.202-.108.061-.228.091-.358.091-.108 0-.202-.028-.279-.084-.078-.056-.141-.126-.189-.208l-.293-.514c.767-.702 1.692-1.053 2.775-1.053.39 0 .737.065 1.04.195.308.126.568.303.78.533.212.225.373.496.481.813.113.316.169.663.169 1.04v4.212m-3.12-1c.165 0 .316-.015.455-.045.139-.03.269-.076.39-.136.126-.061.245-.134.358-.221.117-.091.234-.197.351-.319v-1.124c-.468.022-.86.063-1.177.123-.312.056-.563.13-.754.221-.191.091-.327.197-.409.319-.078.121-.117.254-.117.396 0 .282.082.483.247.604.169.121.388.182.656.182m-6.995-.442h3.763v1.443h-5.512v-9.399h1.748v7.956m-6.173-8.216v9.659h-1.605v-9.659h1.605m-3.529 0v9.659h-1.605v-9.659h1.605m-5.911 2.886c.42 0 .806.067 1.157.202.355.134.661.332.916.592.256.256.455.572.598.949.143.373.214.8.215 1.281 0 .121-.007.223-.02.306-.009.078-.028.141-.059.189-.026.043-.063.076-.111.098-.048.017-.108.026-.182.026h-4.121c.048.685.232 1.187.553 1.508.321.321.745.481 1.274.481.26 0 .483-.03.669-.091.191-.061.355-.128.494-.202.143-.074.266-.141.37-.202.108-.061.212-.091.312-.091.065 0 .121.013.169.039.048.026.089.063.123.111l.468.585c-.178.208-.377.384-.598.526-.221.139-.453.251-.696.338-.238.082-.483.141-.734.176-.247.035-.488.052-.721.052-.464 0-.895-.076-1.294-.228-.399-.156-.745-.383-1.04-.683-.295-.303-.527-.676-.696-1.118-.169-.446-.254-.962-.254-1.547 0-.455.074-.882.221-1.281.147-.403.357-.752.63-1.047.277-.299.613-.535 1.01-.708.399-.173.847-.26 1.346-.26m.032 1.151c-.468 0-.834.132-1.099.397-.264.264-.433.639-.507 1.124h3.02c0-.208-.028-.403-.084-.585-.056-.186-.143-.349-.26-.487-.117-.139-.264-.247-.442-.325-.178-.082-.386-.123-.624-.123m-10.183 5.622v-9.659h1.605v3.809c.264-.282.563-.505.897-.67.334-.169.724-.253 1.17-.254.364 0 .695.076.995.228.303.147.563.364.78.65.221.286.39.639.507 1.06.121.42.182.904.182 1.45 0 .498-.067.96-.202 1.384-.134.425-.327.793-.578 1.105-.247.312-.548.557-.904.734-.351.173-.745.26-1.183.26-.204 0-.39-.022-.559-.065-.169-.039-.323-.095-.462-.169-.139-.074-.269-.162-.39-.266-.117-.108-.23-.227-.338-.357l-.072.449c-.026.113-.072.193-.136.24-.061.048-.145.072-.254.072h-1.06m3.12-5.525c-.334 0-.62.072-.858.215-.234.139-.453.336-.657.591v2.99c.182.225.379.384.592.474.217.087.451.13.702.13.243 0 .461-.045.657-.136.195-.091.36-.23.494-.416.139-.186.245-.42.319-.702.074-.286.11-.622.111-1.01 0-.39-.033-.719-.097-.988-.061-.273-.15-.494-.267-.663-.117-.169-.26-.292-.429-.37-.165-.078-.353-.117-.566-.117m-14.235-1.144h1.274c.121 0 .223.028.306.085.082.056.134.128.156.214l.956 3.562c.052.195.093.386.123.572.035.186.067.373.097.559.048-.186.097-.373.15-.559.056-.186.115-.377.175-.572l1.105-3.575c.026-.087.078-.158.156-.214.078-.056.169-.084.273-.085h.709c.117 0 .214.028.292.085.078.056.13.128.156.214l1.092 3.64c.056.186.106.368.15.546.048.173.093.349.136.527.03-.186.063-.373.097-.559.039-.186.087-.379.143-.578l.988-3.562c.022-.087.074-.158.156-.214.082-.056.178-.084.286-.085h1.215l-2.112 6.669h-1.294c-.139 0-.238-.095-.299-.286l-1.203-3.854c-.039-.126-.076-.251-.111-.377-.03-.13-.056-.258-.078-.384-.026.13-.054.26-.084.39-.03.126-.065.254-.104.384l-1.215 3.841c-.061.191-.178.286-.351.286h-1.228l-2.112-6.669m-3.729-.104c.498 0 .949.08 1.352.24.407.16.754.388 1.04.683.286.295.507.654.663 1.079.156.425.234.899.234 1.423 0 .529-.078 1.01-.234 1.43-.156.425-.377.787-.663 1.085-.286.299-.633.529-1.04.689-.403.16-.854.24-1.352.24-.498 0-.951-.08-1.358-.24-.407-.16-.756-.39-1.047-.689-.286-.299-.509-.661-.669-1.085-.156-.425-.234-.901-.234-1.43 0-.524.078-.999.234-1.423.16-.425.383-.784.669-1.079.29-.295.639-.522 1.047-.683.407-.16.86-.24 1.358-.24m0 5.635c.555 0 .964-.186 1.229-.559.269-.373.403-.919.403-1.638 0-.719-.134-1.267-.403-1.644-.264-.377-.674-.565-1.229-.566-.563 0-.979.191-1.248.572-.269.377-.403.923-.403 1.638 0 .715.134 1.261.403 1.638.269.373.685.559 1.248.559m-5-1.079c.095 0 .178.037.247.111l.689.747c-.381.472-.852.834-1.41 1.085-.555.251-1.222.377-2 .377-.698 0-1.326-.119-1.885-.357-.555-.238-1.029-.57-1.424-.995-.394-.425-.698-.932-.91-1.521-.208-.589-.312-1.233-.312-1.93 0-.706.117-1.352.351-1.937.234-.589.563-1.096.988-1.521.425-.425.932-.754 1.521-.988.594-.238 1.248-.357 1.963-.357.698 0 1.306.113 1.826.338.524.221.973.516 1.346.884l-.585.813c-.035.052-.08.098-.137.136-.052.039-.126.059-.221.059-.1 0-.202-.039-.305-.117-.104-.078-.236-.162-.396-.254-.16-.091-.364-.175-.611-.254-.243-.078-.553-.117-.93-.117-.442 0-.849.078-1.222.234-.368.152-.687.371-.956.657-.264.286-.472.635-.624 1.047-.147.407-.221.867-.221 1.378 0 .529.074.999.221 1.41.152.412.355.758.611 1.04.256.282.557.498.904.65.347.147.719.221 1.118.221.238 0 .453-.013.643-.039.195-.026.373-.067.533-.123.165-.056.318-.128.462-.215.147-.091.292-.201.436-.332.043-.039.089-.069.137-.091.048-.026.1-.039.156-.039m-18.53 5.439c-4.411 0-8-3.59-8-8 0-4.411 3.588-8 8-8 4.412 0 8 3.6 8 8 0 4.4-3.6 8-8 8zm0-14.5c-3.561 0-6.5 2.9-6.5 6.5 0 3.6 2.9 6.5 6.5 6.457 3.6-.043 6.457-2.857 6.5-6.457-.043-3.6-2.9-6.5-6.5-6.458zm1.031 11.261h-2.073v-1.048l-2.984.011.087-.853c.693-6.794 1.59-6.794 2.184-6.794h.222v-.839h3.056v.839h.222c.608 0 1.4 0 2.2 6.788l.095.858-3-.011v1.049zm-2.47-7.141c-.284.66-.639 2.648-.87 4.555l1.798-.009.505.001.507-.001v.003l1.8.006c-.245-1.875-.601-3.875-.901-4.555h-2.839" fill="#fff"/></svg>