<svg xmlns="http://www.w3.org/2000/svg" viewBox="0 0 40.724 39.719"><path d="m97.14 135.36c-11.242 0-20.36 9.116-20.36 20.363 0 8.995 5.834 16.627 13.925 19.321 1.019.186 1.39-.442 1.39-.982 0-.484-.017-1.764-.028-3.463-5.664 1.23-6.859-2.73-6.859-2.73-.926-2.352-2.261-2.979-2.261-2.979-1.849-1.262.14-1.238.14-1.238 2.044.144 3.119 2.099 3.119 2.099 1.816 3.111 4.766 2.213 5.926 1.691.185-1.315.711-2.213 1.293-2.721-4.521-.515-9.275-2.261-9.275-10.06 0-2.224.794-4.04 2.096-5.464-.21-.515-.909-2.585.2-5.389 0 0 1.709-.548 5.599 2.086 1.624-.451 3.366-.676 5.097-.685 1.73.009 3.471.234 5.097.685 3.888-2.634 5.594-2.086 5.594-2.086 1.111 2.804.412 4.874.204 5.389 1.305 1.424 2.093 3.24 2.093 5.464 0 7.822-4.761 9.544-9.296 10.05.73.629 1.381 1.871 1.381 3.771 0 2.721-.025 4.917-.025 5.585 0 .545.368 1.179 1.4.98 8.09-2.699 13.914-10.325 13.914-19.319 0-11.246-9.118-20.363-20.364-20.363" fill="#fff" fill-rule="evenodd" transform="translate(-76.78-135.36)"/></svg>