<svg xmlns="http://www.w3.org/2000/svg" height="79.22" viewBox="0 0 260 79.225" enable-background="new 0 0 260 79.225"><g fill="#fff"><path d="m14.982 58.974c1.232 0 2.452-.114 3.661-.343 1.208-.227 2.303-.615 3.284-1.163.98-.546 1.767-1.288 2.36-2.224.592-.933.889-2.108.889-3.522 0-1.048-.229-1.95-.684-2.702-.457-.754-1.072-1.426-1.847-2.02-.776-.591-1.654-1.151-2.634-1.676-.981-.523-2.02-1.082-3.113-1.676-1.187-.593-2.315-1.266-3.387-2.02-1.072-.752-2.02-1.607-2.839-2.565s-1.471-2.075-1.95-3.352c-.479-1.276-.718-2.782-.718-4.515 0-2.097.399-4.02 1.197-5.781.798-1.755 1.984-3.272 3.558-4.55 1.573-1.276 3.511-2.28 5.814-3.01 2.303-.729 4.983-1.095 8.04-1.095 1.413 0 2.771.115 4.071.342 1.3.229 2.52.513 3.66.855 1.139.342 2.144.719 3.01 1.129.866.411 1.55.798 2.053 1.163l-3.763 6.568c-.958-.775-2.292-1.437-4-1.984s-3.592-.821-5.645-.821c-1.231 0-2.406.126-3.523.376-1.118.251-2.098.639-2.941 1.163-.845.525-1.505 1.209-1.984 2.053s-.718 1.836-.718 2.976c0 1.05.171 1.916.513 2.6s.821 1.289 1.437 1.813c.616.525 1.334 1 2.155 1.437s1.71.923 2.668 1.471c1.413.776 2.748 1.551 4 2.326 1.254.776 2.36 1.666 3.318 2.668.958 1 1.721 2.155 2.292 3.455.57 1.301.855 2.863.855 4.687 0 2.555-.479 4.789-1.437 6.704-.958 1.917-2.304 3.502-4.04 4.756s-3.786 2.2-6.157 2.839c-2.372.639-4.972.958-7.799.958-1.871 0-3.591-.138-5.165-.411s-2.975-.616-4.207-1.027c-1.231-.411-2.292-.844-3.181-1.301-.889-.454-1.586-.866-2.087-1.23l3.831-6.773c.456.32 1.061.685 1.813 1.095s1.607.787 2.565 1.129 2.01.628 3.147.854c1.141.228 2.35.343 3.626.343m17.583-58.974l4.447 5.61-12.93 8.689-3.353-4.105 11.836-10.194"/><path d="m52.27 65.951c-2.145-.045-3.958-.319-5.439-.82-1.483-.502-2.668-1.187-3.558-2.053s-1.528-1.892-1.916-3.079c-.388-1.185-.582-2.485-.582-3.899 0-1.459.171-2.998.513-4.618.342-1.618.718-3.226 1.129-4.822l7.936-33.11 8.621-1.369c-1.424 5.975-2.849 11.916-4.272 17.822-1.424 5.907-2.872 11.848-4.342 17.822-.216.957-.454 1.904-.712 2.839s-.388 1.858-.388 2.771c0 .776.01 1.494.034 2.155.022.662.206 1.231.547 1.71.342.479.855.879 1.539 1.198s1.574.524 2.668.615l-1.778 6.841"/><path d="m89.35 51.38c-.137.503-.274 1.323-.411 2.463-.137 1.142-.205 2.213-.205 3.216 0 1.323.113 2.634.342 3.934.228 1.3.616 2.59 1.163 3.866-.365.229-.662.443-.889.649-.229.205-.64.535-1.231.992-1.46 1.049-2.612 2.04-3.455 2.976-.845.935-1.266 1.79-1.266 2.565 0 .866.707 1.3 2.121 1.3.548 0 1.129-.067 1.745-.205.615-.137 1.105-.272 1.471-.411l-.616 5.474c-.73.319-1.54.57-2.429.753-.889.182-1.836.274-2.839.274-2.235 0-3.98-.411-5.234-1.232-1.255-.82-1.881-2.098-1.881-3.831 0-1 .216-1.927.65-2.771.433-.845.979-1.62 1.642-2.326.661-.707 1.402-1.358 2.224-1.949.821-.594 1.618-1.141 2.395-1.643-.503-.912-.89-1.96-1.163-3.146-1.141 1-2.543 1.904-4.208 2.701-1.666.798-3.547 1.198-5.645 1.198-2.144 0-3.979-.354-5.507-1.061s-2.771-1.687-3.728-2.941c-.958-1.254-1.666-2.726-2.121-4.413-.457-1.688-.684-3.512-.684-5.473 0-3.329.592-6.432 1.779-9.305 1.186-2.874 2.839-5.359 4.959-7.458 2.121-2.097 4.641-3.751 7.561-4.96 2.918-1.208 6.111-1.813 9.578-1.813 1.779 0 3.568.148 5.371.444 1.801.297 3.614.855 5.438 1.676l-4.927 20.457m-4.498-15.461c-.868-.182-1.849-.274-2.945-.274-2.055 0-3.95.445-5.685 1.334s-3.23 2.077-4.485 3.557c-1.255 1.482-2.226 3.183-2.91 5.097-.685 1.917-1.027 3.924-1.027 6.02 0 1.049.09 2.029.273 2.941.181.913.489 1.71.924 2.394.433.685 1.014 1.232 1.744 1.643.729.41 1.665.616 2.805.616 1.459 0 2.747-.309 3.865-.924 1.117-.615 2.155-1.447 3.113-2.497.045-1.186.147-2.303.308-3.353.159-1.049.376-2.097.65-3.146l3.37-13.409"/><path d="m106.59 59.45c2.189 0 3.922-.352 5.199-1.06s1.916-1.79 1.916-3.25c0-1.187-.411-2.133-1.232-2.84s-2.257-1.539-4.31-2.497c-1.095-.501-2.11-1.026-3.044-1.573-.936-.548-1.745-1.186-2.429-1.916-.684-.729-1.231-1.584-1.642-2.565-.411-.979-.616-2.155-.616-3.523 0-3.558 1.3-6.385 3.899-8.483 2.6-2.097 6.363-3.147 11.289-3.147 2.28 0 4.321.239 6.123.719 1.802.479 3.158.969 4.071 1.471l-2.942 6.431c-.776-.456-1.893-.9-3.352-1.334-1.46-.433-2.988-.65-4.584-.65-.775 0-1.539.069-2.292.205-.752.137-1.426.366-2.02.684-.594.32-1.084.765-1.471 1.334-.388.571-.582 1.265-.582 2.086 0 1.051.421 1.905 1.266 2.565.843.663 2.062 1.358 3.66 2.087 1.505.685 2.781 1.346 3.831 1.984 1.049.64 1.916 1.357 2.6 2.155.685.799 1.186 1.688 1.505 2.668.319.981.479 2.154.479 3.523 0 1.688-.342 3.25-1.026 4.687s-1.676 2.668-2.976 3.694c-1.3 1.025-2.908 1.836-4.823 2.429-1.916.592-4.105.89-6.568.89-1.688 0-3.205-.114-4.55-.343-1.346-.229-2.521-.49-3.523-.787-1-.296-1.848-.604-2.532-.923s-1.209-.592-1.573-.821l2.941-6.499c.318.184.787.422 1.403.718.616.298 1.322.581 2.121.855.797.274 1.687.513 2.668.719.96.205 2 .307 3.09.307z"/><path d="m139.78 43.1c1.412-1.095 2.848-2.246 4.306-3.455s2.838-2.418 4.136-3.627c1.3-1.209 2.519-2.372 3.658-3.491 1.14-1.118 2.119-2.132 2.94-3.045h9.509c-1.095 1.277-2.349 2.623-3.762 4.04s-2.895 2.828-4.444 4.241c-1.551 1.414-3.146 2.805-4.787 4.174-1.643 1.368-3.236 2.668-4.787 3.898 1.143 1.185 2.286 2.573 3.429 4.166 1.143 1.594 2.235 3.259 3.281 4.994 1.044 1.737 1.998 3.496 2.864 5.274.864 1.779 1.57 3.444 2.117 4.996h-9.129c-.64-1.506-1.349-3.03-2.126-4.582-.778-1.551-1.624-3.068-2.538-4.549-.915-1.482-1.875-2.873-2.881-4.173-1.01-1.301-2.01-2.452-3.02-3.455l-4.104 16.759h-8.222l12.383-51.721 8.621-1.369-7.45 30.928z"/><path d="m180.79 0v79.21h79.21v-79.21h-79.21m25.53 62.54h-9.587v-42.588h9.587v42.588m41.42-34.415h-12.844v34.416h-9.587v-34.416h-12.844v-8.173h35.27v8.173"/></g></svg>