<?xml version="1.0" encoding="UTF-8" standalone="no"?>
<!DOCTYPE svg  PUBLIC '-//W3C//DTD SVG 1.1//EN'  'http://www.w3.org/Graphics/SVG/1.1/DTD/svg11.dtd'>
<svg xmlns="http://www.w3.org/2000/svg" xml:space="preserve" height="79.225px" viewBox="0 0 260 79.225" width="260px" version="1.1" y="0px" x="0px" xmlns:xlink="http://www.w3.org/1999/xlink" enable-background="new 0 0 260 79.225">
	<path fill="#FFFFFF" d="m14.982 58.974c1.232 0 2.452-0.114 3.661-0.343 1.208-0.227 2.303-0.615 3.284-1.163 0.98-0.546 1.767-1.288 2.36-2.224 0.592-0.933 0.889-2.108 0.889-3.522 0-1.048-0.229-1.95-0.684-2.702-0.457-0.754-1.072-1.426-1.847-2.02-0.776-0.591-1.654-1.151-2.634-1.676-0.981-0.523-2.018-1.082-3.113-1.676-1.187-0.593-2.315-1.266-3.387-2.019-1.072-0.752-2.018-1.607-2.839-2.565s-1.471-2.075-1.95-3.352c-0.479-1.276-0.718-2.782-0.718-4.515 0-2.097 0.399-4.025 1.197-5.781 0.798-1.755 1.984-3.272 3.558-4.55 1.573-1.276 3.511-2.28 5.814-3.01 2.303-0.729 4.983-1.095 8.039-1.095 1.413 0 2.771 0.115 4.071 0.342 1.3 0.229 2.52 0.513 3.66 0.855 1.139 0.342 2.144 0.719 3.01 1.129 0.866 0.411 1.55 0.798 2.053 1.163l-3.763 6.568c-0.958-0.775-2.292-1.437-4.002-1.984s-3.592-0.821-5.645-0.821c-1.231 0-2.406 0.126-3.523 0.376-1.118 0.251-2.098 0.639-2.941 1.163-0.845 0.525-1.505 1.209-1.984 2.053s-0.718 1.836-0.718 2.976c0 1.05 0.171 1.916 0.513 2.6s0.821 1.289 1.437 1.813c0.616 0.525 1.334 1.003 2.155 1.437s1.71 0.923 2.668 1.471c1.413 0.776 2.748 1.551 4.002 2.326 1.254 0.776 2.36 1.666 3.318 2.668 0.958 1.004 1.721 2.155 2.292 3.455 0.57 1.301 0.855 2.863 0.855 4.687 0 2.555-0.479 4.789-1.437 6.704-0.958 1.917-2.304 3.502-4.037 4.756s-3.786 2.2-6.157 2.839c-2.372 0.639-4.972 0.958-7.799 0.958-1.871 0-3.591-0.138-5.165-0.411s-2.975-0.616-4.207-1.027c-1.231-0.411-2.292-0.844-3.181-1.301-0.889-0.454-1.586-0.866-2.087-1.23l3.831-6.773c0.456 0.32 1.061 0.685 1.813 1.095s1.607 0.787 2.565 1.129 2.007 0.628 3.147 0.854c1.141 0.228 2.35 0.343 3.626 0.343zm17.583-58.974l4.447 5.61-12.93 8.689-3.353-4.105 11.836-10.194z"/>
	<path fill="#FFFFFF" d="m52.269 65.951c-2.145-0.045-3.958-0.319-5.439-0.82-1.483-0.502-2.668-1.187-3.558-2.053s-1.528-1.892-1.916-3.079c-0.388-1.185-0.582-2.485-0.582-3.899 0-1.459 0.171-2.998 0.513-4.618 0.342-1.618 0.718-3.226 1.129-4.822l7.936-33.113 8.621-1.369c-1.424 5.975-2.849 11.916-4.272 17.822-1.424 5.907-2.872 11.848-4.342 17.822-0.216 0.957-0.454 1.904-0.712 2.839s-0.388 1.858-0.388 2.771c0 0.776 0.01 1.494 0.034 2.155 0.022 0.662 0.206 1.231 0.547 1.71 0.342 0.479 0.855 0.879 1.539 1.198s1.574 0.524 2.668 0.615l-1.778 6.841z"/>
	<path fill="#FFFFFF" d="m89.349 51.379c-0.137 0.503-0.274 1.323-0.411 2.463-0.137 1.142-0.205 2.213-0.205 3.216 0 1.323 0.113 2.634 0.342 3.934 0.228 1.3 0.616 2.59 1.163 3.866-0.365 0.229-0.662 0.443-0.889 0.649-0.229 0.205-0.64 0.535-1.231 0.992-1.46 1.049-2.612 2.04-3.455 2.976-0.845 0.935-1.266 1.79-1.266 2.565 0 0.866 0.707 1.3 2.121 1.3 0.548 0 1.129-0.067 1.745-0.205 0.615-0.137 1.105-0.272 1.471-0.411l-0.616 5.474c-0.73 0.319-1.54 0.57-2.429 0.753-0.889 0.182-1.836 0.274-2.839 0.274-2.235 0-3.98-0.411-5.234-1.232-1.255-0.82-1.881-2.098-1.881-3.831 0-1.003 0.216-1.927 0.65-2.771 0.433-0.845 0.979-1.62 1.642-2.326 0.661-0.707 1.402-1.358 2.224-1.949 0.821-0.594 1.618-1.141 2.395-1.643-0.503-0.912-0.89-1.96-1.163-3.146-1.141 1.003-2.543 1.904-4.208 2.701-1.666 0.798-3.547 1.198-5.645 1.198-2.144 0-3.979-0.354-5.507-1.061s-2.771-1.687-3.728-2.941c-0.958-1.254-1.666-2.726-2.121-4.413-0.457-1.688-0.684-3.512-0.684-5.473 0-3.329 0.592-6.432 1.779-9.305 1.186-2.874 2.839-5.359 4.959-7.458 2.121-2.097 4.641-3.751 7.561-4.96 2.918-1.208 6.111-1.813 9.578-1.813 1.779 0 3.568 0.148 5.371 0.444 1.801 0.297 3.614 0.855 5.438 1.676l-4.927 20.457zm-4.498-15.461c-0.868-0.182-1.849-0.274-2.945-0.274-2.055 0-3.95 0.445-5.685 1.334s-3.23 2.077-4.485 3.557c-1.255 1.482-2.226 3.183-2.91 5.097-0.685 1.917-1.027 3.924-1.027 6.021 0 1.049 0.09 2.029 0.273 2.941 0.181 0.913 0.489 1.71 0.924 2.394 0.433 0.685 1.014 1.232 1.744 1.643 0.729 0.41 1.665 0.616 2.805 0.616 1.459 0 2.747-0.309 3.865-0.924 1.117-0.615 2.155-1.447 3.113-2.497 0.045-1.186 0.147-2.303 0.308-3.353 0.159-1.049 0.376-2.097 0.65-3.146l3.37-13.409z"/>
	<path fill="#FFFFFF" d="m106.59 59.452c2.189 0 3.922-0.352 5.199-1.06s1.916-1.79 1.916-3.25c0-1.187-0.411-2.133-1.232-2.84s-2.257-1.539-4.31-2.497c-1.095-0.501-2.11-1.026-3.044-1.573-0.936-0.548-1.745-1.186-2.429-1.916-0.684-0.729-1.231-1.584-1.642-2.565-0.411-0.979-0.616-2.155-0.616-3.523 0-3.558 1.3-6.385 3.899-8.483 2.6-2.097 6.363-3.147 11.289-3.147 2.28 0 4.321 0.239 6.123 0.719 1.802 0.479 3.158 0.969 4.071 1.471l-2.942 6.431c-0.776-0.456-1.893-0.9-3.352-1.334-1.46-0.433-2.988-0.65-4.584-0.65-0.775 0-1.539 0.069-2.292 0.205-0.752 0.137-1.426 0.366-2.018 0.684-0.594 0.32-1.084 0.765-1.471 1.334-0.388 0.571-0.582 1.265-0.582 2.086 0 1.051 0.421 1.905 1.266 2.565 0.843 0.663 2.062 1.358 3.66 2.087 1.505 0.685 2.781 1.346 3.831 1.984 1.049 0.64 1.916 1.357 2.6 2.155 0.685 0.799 1.186 1.688 1.505 2.668 0.319 0.981 0.479 2.154 0.479 3.523 0 1.688-0.342 3.25-1.026 4.687s-1.676 2.668-2.976 3.694c-1.3 1.025-2.908 1.836-4.823 2.429-1.916 0.592-4.105 0.89-6.568 0.89-1.688 0-3.205-0.114-4.55-0.343-1.346-0.229-2.521-0.49-3.523-0.787-1.004-0.296-1.848-0.604-2.532-0.923s-1.209-0.592-1.573-0.821l2.941-6.499c0.318 0.184 0.787 0.422 1.403 0.718 0.616 0.298 1.322 0.581 2.121 0.855 0.797 0.274 1.687 0.513 2.668 0.719 0.96 0.205 2 0.307 3.09 0.307z"/>
	<path fill="#FFFFFF" d="m139.78 43.104c1.412-1.095 2.848-2.246 4.306-3.455s2.838-2.418 4.136-3.627c1.3-1.209 2.519-2.372 3.658-3.491 1.14-1.118 2.119-2.132 2.94-3.045h9.509c-1.095 1.277-2.349 2.623-3.762 4.037s-2.895 2.828-4.444 4.241c-1.551 1.414-3.146 2.805-4.787 4.174-1.643 1.368-3.236 2.668-4.787 3.898 1.143 1.185 2.286 2.573 3.429 4.166 1.143 1.594 2.235 3.259 3.281 4.994 1.044 1.737 1.998 3.496 2.864 5.274 0.864 1.779 1.57 3.444 2.117 4.996h-9.129c-0.64-1.506-1.349-3.032-2.126-4.582-0.778-1.551-1.624-3.068-2.538-4.549-0.915-1.482-1.875-2.873-2.881-4.173-1.006-1.301-2.012-2.452-3.018-3.455l-4.104 16.759h-8.222l12.383-51.721 8.621-1.369-7.45 30.928z"/>
  <path fill="#FFFFFF" d="m180.79 0v79.208h79.21v-79.208h-79.21zm25.53 62.538h-9.587v-42.588h9.587v42.588zm41.42-34.415h-12.844v34.416h-9.587v-34.416h-12.844v-8.173h35.274v8.173z"/>
</svg>
