<svg xmlns="http://www.w3.org/2000/svg" viewBox="0 0 171.51 139.38"><path d="m453.83 412.81c-6.31 2.799-13.09 4.69-20.21 5.54 7.264-4.355 12.844-11.25 15.471-19.467-6.799 4.03-14.329 6.961-22.345 8.538-6.418-6.839-15.562-11.11-25.683-11.11-19.432 0-35.19 15.754-35.19 35.19 0 2.758.311 5.444.912 8.02-29.24-1.467-55.17-15.476-72.52-36.764-3.03 5.197-4.764 11.24-4.764 17.689 0 12.208 6.212 22.977 15.653 29.29-5.768-.183-11.193-1.766-15.937-4.401-.004.147-.004.294-.004.442 0 17.05 12.13 31.27 28.23 34.503-2.952.804-6.06 1.234-9.27 1.234-2.267 0-4.471-.221-6.62-.631 4.478 13.979 17.472 24.15 32.87 24.434-12.04 9.438-27.21 15.06-43.7 15.06-2.84 0-5.641-.167-8.393-.492 15.572 9.984 34.07 15.809 53.938 15.809 64.72 0 100.11-53.615 100.11-100.11 0-1.526-.034-3.043-.102-4.553 6.874-4.96 12.839-11.156 17.556-18.213" fill="#fff" transform="translate(-282.32-396.31)"/></svg>